<svg width="93" height="117" viewBox="0 0 93 117" fill="none" xmlns="http://www.w3.org/2000/svg">
<path d="M42.6732 1.58513C45.1234 0.570188 47.8766 0.570187 50.3268 1.58513L72.7252 10.8628C75.1755 11.8778 77.1222 13.8245 78.1372 16.2748L87.4149 38.6732C88.4298 41.1234 88.4298 43.8766 87.4149 46.3268L78.1372 68.7252C77.1222 71.1755 75.1755 73.1222 72.7252 74.1372L50.3268 83.4149C47.8766 84.4298 45.1234 84.4298 42.6732 83.4149L20.2748 74.1372C17.8245 73.1222 15.8778 71.1755 14.8628 68.7252L5.58513 46.3268C4.57019 43.8766 4.57019 41.1234 5.58513 38.6732L14.8628 16.2748C15.8778 13.8245 17.8245 11.8778 20.2748 10.8628L42.6732 1.58513Z" fill="#FF5656"/>
<path d="M42.6732 13.5851C45.1234 12.5702 47.8766 12.5702 50.3268 13.5851L72.7252 22.8628C75.1755 23.8778 77.1222 25.8245 78.1372 28.2748L87.4149 50.6732C88.4298 53.1234 88.4298 55.8766 87.4149 58.3268L78.1372 80.7252C77.1222 83.1755 75.1755 85.1222 72.7252 86.1372L50.3268 95.4149C47.8766 96.4298 45.1234 96.4298 42.6732 95.4149L20.2748 86.1372C17.8245 85.1222 15.8778 83.1755 14.8628 80.7252L5.58513 58.3268C4.57019 55.8766 4.57019 53.1234 5.58513 50.6732L14.8628 28.2748C15.8778 25.8245 17.8245 23.8778 20.2748 22.8628L42.6732 13.5851Z" fill="#FFF851" fill-opacity="0.64"/>
<g filter="url(#filter0_d_21:7)">
<path d="M42.6732 25.5851C45.1234 24.5702 47.8766 24.5702 50.3268 25.5851L72.7252 34.8628C75.1755 35.8778 77.1222 37.8245 78.1372 40.2748L87.4149 62.6732C88.4298 65.1234 88.4298 67.8766 87.4149 70.3268L78.1372 92.7252C77.1222 95.1755 75.1755 97.1222 72.7252 98.1372L50.3268 107.415C47.8766 108.43 45.1234 108.43 42.6732 107.415L20.2748 98.1372C17.8245 97.1222 15.8778 95.1755 14.8628 92.7252L5.58513 70.3268C4.57019 67.8766 4.57019 65.1234 5.58513 62.6732L14.8628 40.2748C15.8778 37.8245 17.8245 35.8778 20.2748 34.8628L42.6732 25.5851Z" fill="#F0F0F0" fill-opacity="0.48" shape-rendering="crispEdges"/>
</g>
<defs>
<filter id="filter0_d_21:7" x="0.823922" y="24.8239" width="91.3521" height="91.3521" filterUnits="userSpaceOnUse" color-interpolation-filters="sRGB">
<feFlood flood-opacity="0" result="BackgroundImageFix"/>
<feColorMatrix in="SourceAlpha" type="matrix" values="0 0 0 0 0 0 0 0 0 0 0 0 0 0 0 0 0 0 127 0" result="hardAlpha"/>
<feOffset dy="4"/>
<feGaussianBlur stdDeviation="2"/>
<feComposite in2="hardAlpha" operator="out"/>
<feColorMatrix type="matrix" values="0 0 0 0 0 0 0 0 0 0 0 0 0 0 0 0 0 0 0.25 0"/>
<feBlend mode="normal" in2="BackgroundImageFix" result="effect1_dropShadow_21:7"/>
<feBlend mode="normal" in="SourceGraphic" in2="effect1_dropShadow_21:7" result="shape"/>
</filter>
</defs>
</svg>
